<svg width="72" height="72" viewBox="0 0 72 72" fill="none" xmlns="http://www.w3.org/2000/svg">
<rect width="72" height="72" rx="36" fill="#295C7A"/>
<path d="M36.8432 46.176H34.2117C34.0944 46.176 33.9819 46.1302 33.899 46.0487C33.8161 45.9672 33.7695 45.8567 33.7695 45.7415V24.7545C33.7695 24.2963 33.9547 23.8569 34.2844 23.5329C34.6141 23.2089 35.0612 23.0269 35.5274 23.0269C35.9936 23.0269 36.4407 23.2089 36.7704 23.5329C37.1001 23.8569 37.2853 24.2963 37.2853 24.7545V45.7419C37.2852 45.8571 37.2385 45.9675 37.1556 46.0489C37.0727 46.1303 36.9603 46.176 36.8432 46.176ZM34.6538 45.3069H36.401V24.7545C36.401 24.5268 36.309 24.3084 36.1452 24.1474C35.9813 23.9864 35.7591 23.8959 35.5274 23.8959C35.2957 23.8959 35.0735 23.9864 34.9097 24.1474C34.7458 24.3084 34.6538 24.5268 34.6538 24.7545V45.3069Z" fill="white"/>
<path d="M24.8712 28.8519H23.3534C22.9933 28.8456 22.6501 28.7005 22.3977 28.448C22.1453 28.1954 22.0039 27.8556 22.0039 27.5016C22.0039 27.1477 22.1453 26.8078 22.3977 26.5553C22.6501 26.3028 22.9933 26.1577 23.3534 26.1514H24.6559C24.7731 26.1514 24.8856 26.1971 24.9685 26.2786C25.0514 26.3601 25.098 26.4706 25.098 26.5859C25.098 26.7011 25.0514 26.8117 24.9685 26.8931C24.8856 26.9746 24.7731 27.0204 24.6559 27.0204H23.3534C23.2261 27.0242 23.1052 27.0765 23.0165 27.1664C22.9278 27.2562 22.8782 27.3765 22.8782 27.5016C22.8782 27.6268 22.9278 27.7471 23.0165 27.8369C23.1052 27.9268 23.2261 27.9791 23.3534 27.9829H24.8712C24.9884 27.9829 25.1009 28.0287 25.1838 28.1101C25.2667 28.1916 25.3133 28.3022 25.3133 28.4174C25.3133 28.5326 25.2667 28.6432 25.1838 28.7247C25.1009 28.8061 24.9884 28.8519 24.8712 28.8519Z" fill="white"/>
<path d="M34.2106 28.8519H27.5456C27.4284 28.8519 27.3159 28.8061 27.233 28.7247C27.1501 28.6432 27.1035 28.5326 27.1035 28.4174C27.1035 28.3022 27.1501 28.1916 27.233 28.1101C27.3159 28.0287 27.4284 27.9829 27.5456 27.9829H33.7685V27.0204H27.7605C27.6432 27.0204 27.5308 26.9746 27.4479 26.8931C27.365 26.8117 27.3184 26.7011 27.3184 26.5859C27.3184 26.4706 27.365 26.3601 27.4479 26.2786C27.5308 26.1971 27.6432 26.1514 27.7605 26.1514H34.2106C34.3279 26.1514 34.4403 26.1971 34.5232 26.2786C34.6062 26.3601 34.6527 26.4706 34.6527 26.5859V28.4174C34.6527 28.5326 34.6062 28.6432 34.5232 28.7247C34.4403 28.8061 34.3279 28.8519 34.2106 28.8519Z" fill="white"/>
<path d="M43.4111 28.8519H36.8425C36.7253 28.8519 36.6128 28.8061 36.5299 28.7247C36.447 28.6432 36.4004 28.5326 36.4004 28.4174V26.5859C36.4004 26.4706 36.447 26.3601 36.5299 26.2786C36.6128 26.1971 36.7253 26.1514 36.8425 26.1514H43.1962C43.3135 26.1514 43.426 26.1971 43.5089 26.2786C43.5918 26.3601 43.6384 26.4706 43.6384 26.5859C43.6384 26.7011 43.5918 26.8117 43.5089 26.8931C43.426 26.9746 43.3135 27.0204 43.1962 27.0204H37.2846V27.9829H43.4111C43.5284 27.9829 43.6408 28.0287 43.7237 28.1101C43.8067 28.1916 43.8532 28.3022 43.8532 28.4174C43.8532 28.5326 43.8067 28.6432 43.7237 28.7247C43.6408 28.8061 43.5284 28.8519 43.4111 28.8519Z" fill="white"/>
<path d="M47.6957 28.8519H46.1824C46.0651 28.8519 45.9526 28.8061 45.8697 28.7247C45.7868 28.6432 45.7402 28.5326 45.7402 28.4174C45.7402 28.3022 45.7868 28.1916 45.8697 28.1101C45.9526 28.0287 46.0651 27.9829 46.1824 27.9829H47.6957C47.8231 27.9791 47.9439 27.9268 48.0326 27.8369C48.1213 27.7471 48.1709 27.6268 48.1709 27.5016C48.1709 27.3765 48.1213 27.2562 48.0326 27.1664C47.9439 27.0765 47.8231 27.0242 47.6957 27.0204H46.4003C46.2831 27.0204 46.1706 26.9746 46.0877 26.8931C46.0048 26.8117 45.9582 26.7011 45.9582 26.5859C45.9582 26.4706 46.0048 26.3601 46.0877 26.2786C46.1706 26.1971 46.2831 26.1514 46.4003 26.1514H47.6957C48.0559 26.1577 48.399 26.3028 48.6514 26.5553C48.9038 26.8078 49.0452 27.1477 49.0452 27.5016C49.0452 27.8556 48.9038 28.1954 48.6514 28.448C48.399 28.7005 48.0559 28.8456 47.6957 28.8519Z" fill="white"/>
<path d="M41.1271 48.9725H29.9282C29.8611 48.9724 29.7949 48.9574 29.7346 48.9285C29.6743 48.8995 29.6214 48.8575 29.5801 48.8055C29.5388 48.7536 29.51 48.6931 29.496 48.6285C29.4821 48.564 29.4832 48.4972 29.4994 48.4332C29.6817 47.5739 30.1511 46.7992 30.833 46.2323C31.515 45.6654 32.3702 45.3388 33.2627 45.3047H37.7927C38.6852 45.3388 39.5404 45.6654 40.2223 46.2323C40.9043 46.7992 41.3737 47.5739 41.556 48.4332C41.5722 48.4972 41.5733 48.564 41.5593 48.6285C41.5453 48.6931 41.5166 48.7536 41.4753 48.8055C41.4339 48.8575 41.3811 48.8995 41.3208 48.9285C41.2605 48.9574 41.1943 48.9724 41.1271 48.9725ZM30.5397 48.1034H40.5157C40.3052 47.5544 39.9346 47.0786 39.4502 46.7357C38.9658 46.3929 38.3892 46.1981 37.7927 46.1759H33.2627C32.6662 46.1981 32.0896 46.3929 31.6052 46.7357C31.1208 47.0786 30.7501 47.5544 30.5397 48.1034Z" fill="white"/>
<path d="M42.3246 48.9726H28.7312C28.6139 48.9726 28.5015 48.9268 28.4186 48.8453C28.3356 48.7638 28.2891 48.6533 28.2891 48.538C28.2891 48.4228 28.3356 48.3123 28.4186 48.2308C28.5015 48.1493 28.6139 48.1035 28.7312 48.1035H42.3246C42.4419 48.1035 42.5543 48.1493 42.6373 48.2308C42.7202 48.3123 42.7667 48.4228 42.7667 48.538C42.7667 48.6533 42.7202 48.7638 42.6373 48.8453C42.5543 48.9268 42.4419 48.9726 42.3246 48.9726Z" fill="white"/>
<path d="M50.5587 39.747H39.1338C39.0598 39.7471 38.987 39.7289 38.922 39.6941C38.857 39.6593 38.8019 39.609 38.7619 39.5478C38.7218 39.4867 38.698 39.4166 38.6926 39.3441C38.6872 39.2715 38.7004 39.1988 38.7311 39.1326L43.5856 28.6285C43.6095 28.5764 43.6436 28.5294 43.686 28.4903C43.7284 28.4512 43.7783 28.4206 43.8327 28.4005C43.8871 28.3803 43.945 28.3709 44.0032 28.3728C44.0613 28.3747 44.1185 28.3878 44.1714 28.4114C44.2244 28.4351 44.2721 28.4688 44.3118 28.5105C44.3515 28.5523 44.3824 28.6014 44.4028 28.6549C44.4231 28.7085 44.4325 28.7654 44.4305 28.8226C44.4284 28.8797 44.4149 28.9359 44.3907 28.9878L39.82 38.878H49.8708L45.3041 28.9878C45.2801 28.9359 45.2668 28.8797 45.2649 28.8227C45.263 28.7656 45.2725 28.7088 45.2929 28.6554C45.3134 28.6019 45.3443 28.553 45.384 28.5113C45.4237 28.4697 45.4714 28.4361 45.5243 28.4125C45.5772 28.389 45.6343 28.3759 45.6923 28.374C45.7503 28.3721 45.8082 28.3815 45.8626 28.4016C45.9169 28.4217 45.9667 28.4521 46.0091 28.4911C46.0515 28.5301 46.0857 28.5769 46.1096 28.6289L50.9593 39.133C50.9897 39.1991 51.0029 39.2715 50.9976 39.3438C50.9923 39.4162 50.9686 39.486 50.9288 39.547C50.889 39.6081 50.8343 39.6583 50.7696 39.6933C50.705 39.7282 50.6325 39.7467 50.5587 39.747Z" fill="white"/>
<path d="M44.8911 45.2894H44.7991C41.2591 45.2894 38.6895 42.7761 38.6895 39.3129C38.6895 39.1977 38.736 39.0872 38.8189 39.0057C38.9019 38.9242 39.0143 38.8784 39.1316 38.8784H50.5582C50.6754 38.8784 50.7879 38.9242 50.8708 39.0057C50.9537 39.0872 51.0003 39.1977 51.0003 39.3129C51.0003 42.7783 48.4307 45.2894 44.8911 45.2894ZM39.5892 39.7475C39.7864 42.5206 41.8727 44.4203 44.7991 44.4203H44.8911C47.817 44.4203 49.9038 42.5206 50.1006 39.7475H39.5892Z" fill="white"/>
<path d="M44.8458 29.4714C44.4159 29.4715 43.9956 29.3463 43.6381 29.1116C43.2806 28.8769 43.002 28.5433 42.8374 28.153C42.6728 27.7626 42.6298 27.3331 42.7136 26.9187C42.7975 26.5043 43.0045 26.1236 43.3085 25.8249C43.6125 25.5261 43.9998 25.3227 44.4214 25.2402C44.8431 25.1578 45.2801 25.2002 45.6773 25.3619C46.0745 25.5236 46.4139 25.7975 46.6527 26.1488C46.8915 26.5002 47.0189 26.9132 47.0188 27.3358C47.0181 27.902 46.7889 28.4448 46.3816 28.8451C45.9742 29.2455 45.4219 29.4707 44.8458 29.4714ZM44.8458 26.0687C44.5908 26.0686 44.3415 26.1428 44.1294 26.282C43.9173 26.4212 43.752 26.6191 43.6544 26.8506C43.5567 27.0821 43.5311 27.3369 43.5808 27.5827C43.6305 27.8285 43.7533 28.0543 43.9336 28.2316C44.1138 28.4088 44.3436 28.5295 44.5937 28.5784C44.8438 28.6274 45.103 28.6023 45.3386 28.5064C45.5742 28.4105 45.7756 28.2481 45.9173 28.0397C46.0589 27.8314 46.1346 27.5864 46.1346 27.3358C46.1342 26.9999 45.9983 26.6779 45.7567 26.4403C45.5151 26.2028 45.1875 26.0692 44.8458 26.0687Z" fill="white"/>
<path d="M31.9191 39.7475H20.4947C20.4208 39.7475 20.348 39.7292 20.283 39.6944C20.2181 39.6595 20.1631 39.6093 20.1231 39.5481C20.083 39.487 20.0593 39.4169 20.0539 39.3444C20.0485 39.2719 20.0618 39.1992 20.0924 39.1331L24.9478 28.629C24.9963 28.524 25.0852 28.4422 25.195 28.4017C25.3048 28.3611 25.4265 28.3651 25.5334 28.4128C25.6402 28.4604 25.7234 28.5478 25.7646 28.6558C25.8059 28.7637 25.8018 28.8833 25.7533 28.9883L21.1827 38.8784H31.2334L26.6667 28.9883C26.6414 28.9362 26.6268 28.8796 26.6239 28.8218C26.6211 28.7641 26.63 28.7063 26.6501 28.652C26.6703 28.5977 26.7012 28.5479 26.7412 28.5055C26.7812 28.463 26.8293 28.4289 26.8829 28.405C26.9365 28.3811 26.9944 28.368 27.0532 28.3664C27.112 28.3648 27.1705 28.3747 27.2254 28.3956C27.2802 28.4165 27.3302 28.4479 27.3726 28.4881C27.4149 28.5282 27.4487 28.5763 27.4718 28.6294L32.3219 39.1335C32.3525 39.1997 32.3656 39.2724 32.3602 39.3448C32.3548 39.4173 32.3309 39.4873 32.2908 39.5484C32.2508 39.6095 32.1958 39.6597 32.1308 39.6945C32.0659 39.7293 31.9931 39.7475 31.9191 39.7475Z" fill="white"/>
<path d="M26.2539 45.2894H26.162C22.6223 45.2894 20.0527 42.7783 20.0527 39.3129C20.0527 39.1977 20.0993 39.0872 20.1822 39.0057C20.2651 38.9242 20.3776 38.8784 20.4949 38.8784H31.9215C32.0387 38.8784 32.1512 38.9242 32.2341 39.0057C32.317 39.0872 32.3636 39.1977 32.3636 39.3129C32.3636 42.7783 29.794 45.2894 26.2539 45.2894ZM20.9525 39.7475C21.1492 42.5206 23.236 44.4203 26.162 44.4203H26.2539C29.1803 44.4203 31.2667 42.5206 31.4639 39.7475H20.9525Z" fill="white"/>
<path d="M26.2086 29.4714C25.7787 29.4714 25.3585 29.3461 25.0011 29.1114C24.6436 28.8767 24.3651 28.543 24.2006 28.1527C24.0361 27.7623 23.9931 27.3328 24.077 26.9184C24.1609 26.5041 24.3679 26.1234 24.6719 25.8247C24.9759 25.526 25.3632 25.3226 25.7849 25.2402C26.2065 25.1578 26.6435 25.2002 27.0407 25.3619C27.4378 25.5237 27.7772 25.7975 28.016 26.1489C28.2548 26.5002 28.3822 26.9133 28.3821 27.3358C28.3814 27.902 28.1522 28.4449 27.7447 28.8453C27.3372 29.2457 26.7848 29.4709 26.2086 29.4714ZM26.2086 26.0687C25.9536 26.0687 25.7044 26.143 25.4924 26.2822C25.2804 26.4215 25.1151 26.6194 25.0175 26.8509C24.92 27.0824 24.8944 27.3372 24.9442 27.583C24.9939 27.8287 25.1167 28.0545 25.297 28.2317C25.4773 28.4089 25.707 28.5296 25.9571 28.5785C26.2072 28.6274 26.4664 28.6023 26.702 28.5064C26.9376 28.4105 27.1389 28.2481 27.2806 28.0397C27.4222 27.8313 27.4978 27.5864 27.4978 27.3358C27.4975 26.9998 27.3616 26.6777 27.1199 26.4402C26.8782 26.2026 26.5504 26.069 26.2086 26.0687Z" fill="white"/>
</svg>
