<svg width="72" height="72" viewBox="0 0 72 72" fill="none" xmlns="http://www.w3.org/2000/svg">
<rect width="72" height="72" rx="36" fill="#295C7A"/>
<path d="M32.7336 27.1289H28.7833C28.5934 27.1289 28.4395 27.2798 28.4395 27.4658C28.4395 27.6519 28.5934 27.8027 28.7833 27.8027H32.7336C32.9235 27.8027 33.0775 27.6519 33.0775 27.4658C33.0775 27.2798 32.9235 27.1289 32.7336 27.1289Z" fill="white"/>
<path d="M32.7336 28.6836H28.7833C28.5934 28.6836 28.4395 28.8344 28.4395 29.0205C28.4395 29.2066 28.5934 29.3574 28.7833 29.3574H32.7336C32.9235 29.3574 33.0775 29.2066 33.0775 29.0205C33.0775 28.8344 32.9235 28.6836 32.7336 28.6836Z" fill="white"/>
<path d="M46.592 45.3267L39.3042 38.7105C39.6366 38.3496 39.9503 37.9851 40.2423 37.619C40.8056 38.0057 41.5885 37.9548 42.0933 37.4636C42.6612 36.9111 42.6644 36.0135 42.1003 35.457L39.0654 32.4633C38.5027 31.9082 37.5838 31.9051 37.0172 32.4564C36.5729 32.8888 36.4752 33.5357 36.7251 34.0625C35.3351 35.1044 33.9177 36.4712 32.8022 37.8795C32.2766 37.6348 31.6131 37.7148 31.1604 38.1553C30.5926 38.7079 30.5893 39.6055 31.1535 40.162L34.1883 43.1557C34.7518 43.7116 35.6685 43.7152 36.2365 43.1625C36.741 42.6716 36.7984 41.9043 36.4077 41.3501C36.7843 41.0659 37.1594 40.7603 37.5308 40.4363L44.2339 47.6212C44.6894 48.1094 45.4677 48.1283 45.9471 47.6618L46.6216 47.0054C47.1003 46.5397 47.0886 45.7776 46.592 45.3267ZM37.5019 32.9345C37.8002 32.6443 38.2826 32.6473 38.5775 32.9381L41.6123 35.9319C41.9085 36.224 41.9069 36.6953 41.6086 36.9855C41.3111 37.2751 40.8286 37.2734 40.533 36.9819L37.4982 33.9883C37.2027 33.6968 37.2044 33.2241 37.5019 32.9345ZM37.1451 34.5961L39.7389 37.1548C38.6804 38.4917 37.3118 39.824 35.9374 40.8539L33.3436 38.2953C34.375 36.9925 35.7379 35.6507 37.1451 34.5961ZM35.7518 42.6845C35.4539 42.9744 34.9725 42.9731 34.6763 42.6809L31.6415 39.6872C31.3453 39.3951 31.3469 38.9237 31.6451 38.6335C31.9431 38.3436 32.4244 38.3449 32.7207 38.6371L35.7555 41.6308C36.0511 41.9222 36.0494 42.3949 35.7518 42.6845ZM46.137 46.5274L45.4625 47.1837C45.2551 47.3855 44.9282 47.3668 44.7415 47.1666L38.0371 39.9802C38.1721 39.855 38.3067 39.7282 38.4402 39.5983C38.5746 39.4675 38.7057 39.3357 38.8353 39.2035L46.1245 45.821C46.3323 46.0096 46.3395 46.3303 46.137 46.5274Z" fill="white"/>
<path d="M42.4953 47.3104C42.4313 47.3208 42.3656 47.3261 42.2999 47.3261H27.9025C27.2478 47.3261 26.7151 46.8042 26.7151 46.1627V26.8372C26.7151 26.1957 27.2478 25.6738 27.9025 25.6738H39.1092C39.1555 25.6738 39.2011 25.6784 39.2458 25.6857V27.9922C39.2458 29.0052 40.0871 29.8293 41.121 29.8293H43.4752C43.4827 29.8732 43.4873 29.9178 43.4873 29.9632V41.7201C43.4873 41.9062 43.6413 42.0571 43.8312 42.0571C44.0212 42.0571 44.1751 41.9062 44.1751 41.7201V29.9632C44.1751 29.5696 44.0187 29.1996 43.7347 28.9213L40.1727 25.4316C39.8887 25.1533 39.511 25 39.1092 25H27.9025C26.8686 25 26.0273 25.8242 26.0273 26.8372V46.1627C26.0273 47.1757 26.8686 47.9999 27.9025 47.9999H42.2999C42.403 47.9999 42.5065 47.9916 42.6075 47.9752C42.7948 47.9449 42.9217 47.7714 42.8907 47.5878C42.8597 47.4043 42.6826 47.2798 42.4953 47.3104ZM43.001 29.1555H41.121C40.4663 29.1555 39.9336 28.6336 39.9336 27.9922V26.1503L43.001 29.1555Z" fill="white"/>
</svg>
