<svg width="23" height="22" viewBox="0 0 23 22" fill="none" xmlns="http://www.w3.org/2000/svg">
<path d="M20.1457 8.41256C20.0881 8.24274 19.9819 8.09353 19.8404 7.98335C19.699 7.87316 19.5283 7.80681 19.3495 7.79251L14.1204 7.377L11.8576 2.36798C11.7855 2.20665 11.6683 2.06963 11.5201 1.97344C11.3719 1.87726 11.199 1.82602 11.0223 1.82593C10.8456 1.82583 10.6726 1.87687 10.5243 1.9729C10.376 2.06892 10.2586 2.20582 10.1864 2.36707L7.92356 7.377L2.69441 7.79251C2.51871 7.80642 2.35075 7.87066 2.21062 7.97754C2.07048 8.08442 1.9641 8.2294 1.9042 8.39516C1.84431 8.56091 1.83343 8.74041 1.87288 8.91218C1.91233 9.08395 2.00043 9.24072 2.12664 9.36373L5.99095 13.1308L4.62427 19.0488C4.58277 19.2279 4.59607 19.4154 4.66244 19.5869C4.72881 19.7584 4.8452 19.9059 4.99648 20.0105C5.14777 20.115 5.32698 20.1716 5.51085 20.173C5.69472 20.1744 5.87477 20.1205 6.02763 20.0183L11.022 16.6888L16.0163 20.0183C16.1726 20.1221 16.3568 20.1755 16.5443 20.1713C16.7318 20.1672 16.9135 20.1058 17.0651 19.9953C17.2166 19.8848 17.3307 19.7306 17.392 19.5533C17.4532 19.3761 17.4587 19.1843 17.4078 19.0039L15.7301 13.1336L19.8907 9.38941C20.1631 9.14359 20.2631 8.76019 20.1457 8.41256V8.41256Z" fill="#F3CD03"/>
</svg>
